<svg xmlns="http://www.w3.org/2000/svg" xmlns:xlink="http://www.w3.org/1999/xlink" version="1.1" width="193" height="54" style="enable-background:new 0 0 841.9 595.3;" xml:space="preserve"><rect id="backgroundrect" width="100%" height="100%" x="0" y="0" fill="none" stroke="none"/>
<style type="text/css">
	.st0{clip-path:url(#SVGID_2_);fill:#F1B634;}
</style>

<g class="currentLayer" style=""><title>Layer 1</title><g id="svg_1" class="">
	<defs transform="translate(-223.44166564941406,-253.19998168945312) ">
		<rect id="SVGID_1_" x="84" y="232.60000610351562" width="631" height="94.69999694824219"/>
	</defs>
	<clipPath id="SVGID_2_" transform="translate(-223.44166564941406,-253.19998168945312) ">
		<use xlink:href="#SVGID_1_" style="overflow:visible;" id="svg_2"/>
	</clipPath>
	<path class="st0" d="M53.35833435058595,18.800018310546875 c-0.4,-2.5 -2.6,-4.2 -5.1,-3.8 c-0.9,0.1 -1.8,0.6000000000000001 -2.4,1.2 c-1.9,-1.2 -3.2,-2 -6.4,-3.4 c-4.7,-2.1 -8.6,-3.2 -11.5,-3.2 c-4,0 -6,1 -7.1,1.8 c-1.2,0.9 -1.7000000000000002,2.2 -1.7000000000000002,3.9 c0,2.2 1.1,3.8 3.3,5.1 c1.7000000000000002,1 4.1,1.8 8.4,2.8 l0,0 c4.8,1.2 8.6,3.1 11.2,5.7 c2.5,2.5 3.9,5.6 3.9,8.8 c0,3.7 -1.5,7 -4.2,9.3 c-2.9,2.5 -7.1,3.8 -12.3,3.8 c-4.1,0 -9.9,-1.7000000000000002 -16.8,-5 c-0.9,-0.4 -1.7000000000000002,-0.9 -2.6,-1.3 v0 c-0.30000000000000004,-0.2 -0.6000000000000001,-0.5 -0.6000000000000001,-0.9 c-0.1,-0.6000000000000001 0.4,-1.2 1,-1.2 c0.2,0 0.4,0 0.6000000000000001,0.1 l0,0 c5.6,2.9 12.9,6.1 18.3,6.1 c10.5,0 14.3,-5.6 14.3,-10.8 c0,-2.6 -1.1,-5.1 -3.2,-7.2 c-2.3,-2.3 -5.8,-4.1 -10.2,-5.1 l0,0 c-2.8,-0.7000000000000001 -6.3,-1.5 -9,-3.1 c-1.4,-0.8 -2.5,-1.7000000000000002 -3.2,-2.8 c-0.8,-1.2 -1.2,-2.6 -1.2,-4.2 c0,-2.4 0.9,-4.4 2.6,-5.7 c1.9,-1.5 4.8,-2.3 8.5,-2.3 c3.7,0 7.9,1.3 11.8,3.1 c0,0 0,0 0,0 c0.6000000000000001,0.30000000000000004 1.3,0.5 2,0.4 c2.1,-0.2 3.6,-1.9 3.4,-4 c-0.1,-1.3 -0.9,-2.5 -2,-3 l0,0 c0,0 0,0 0,0 c-5.9,-2.6 -10.9,-3.9 -15.2,-3.9 c-5.4,0 -9.8,1.3 -13.1,3.9 c-3.5,2.8 -5.4,6.9 -5.4,11.6 c0,2.4 0.5,4.7 1.6,6.8 c1.4,2.7 3.6,4.9 6.6,6.7 c3.7,2.1 7.9,3.2 11.1,3.9 l0,0 c0.4,0.1 0.7000000000000001,0.2 1,0.30000000000000004 c0.1,0 0.1,0 0.2,0 c1.8,0.6000000000000001 6.5,1.8 6.5,5.1 c0,2.6 -4.4,3 -6.2,3.1 c-0.2,0 -0.4,0 -0.7000000000000001,0 c-4.8,0 -14.5,-4.7 -20.8,-8.5 c0.2,-0.7000000000000001 0.30000000000000004,-1.4 0.2,-2.1 c-0.4,-2.5 -2.6,-4.2 -5.1,-3.8 c-2.5,0.4 -4.2,2.6 -3.8,5.1 c0.4,2.5 2.6,4.2 5.1,3.8 c0.8,-0.1 1.5,-0.4 2.1,-0.9 c3.2,1.9 6.9,3.9 10.3,5.5 c5.2,2.3 9.2,3.5 12,3.5 c3.4,0 6.1,-0.7000000000000001 7.7,-2.1 c1.1,-1 1.7000000000000002,-2.3 1.7000000000000002,-3.9 c0,-2.6 -2.5,-5.9 -9.6,-7.6 l0,0 c-3,-0.7000000000000001 -7,-1.7000000000000002 -10.3,-3.6 c-2.6,-1.5 -4.4,-3.4 -5.5,-5.6 c-0.8,-1.7000000000000002 -1.3,-3.6 -1.3,-5.6 c0,-3.9 1.6,-7.3 4.5,-9.5 c2.8,-2.2 6.7,-3.3 11.5,-3.3 c4.6,0 9.7,1.7000000000000002 14,3.6 c0,0 0,0 0,0 c0,0 0,0 0,0 l0,0 c0.30000000000000004,0.2 0.6000000000000001,0.5 0.6000000000000001,0.9 c0,0.6000000000000001 -0.4,1.2 -1.1,1.2 c-0.2,0 -0.4,0 -0.6000000000000001,-0.1 l0,0 c-5.1,-2.2 -9.4,-3.4 -13,-3.4 c-4.3,0 -7.7,1 -10.1,2.8 c-2.3,1.8 -3.6,4.5 -3.6,7.7 c0,3.9 1.9,7 5.7,9.2 c3.1,1.8 6.8,2.7 9.7,3.4 l0,0 c3.9,0.9 6.9,2.4 8.9,4.4 c1.6,1.6 2.5,3.5 2.5,5.4 c0,1.6 -0.4,3.8 -2.5,5.6 c-2,1.7000000000000002 -5.2,2.6 -9.2,2.6 c-4.9,0 -11.9,-3.1 -17.2,-5.8 v0 c-0.6000000000000001,-0.30000000000000004 -1.3,-0.4 -2,-0.4 c-2.1,0.2 -3.6,2 -3.4,4.1 c0.1,1.3 1,2.4 2.1,3 c0,0 1.6,0.8 2.6,1.3 c7.3,3.5 13.3,5.3 17.9,5.3 c5.9,0 10.6,-1.5 14,-4.4 c3.3,-2.8 5.1,-6.8 5.1,-11.3 c0,-3.9 -1.6,-7.7 -4.6,-10.6 c-3,-3 -7.2,-5.1 -12.5,-6.4 l0,0 c-1.7000000000000002,-0.4 -3.2,-0.8 -4.3,-1.2 c-2,-0.6000000000000001 -5.4,-1.7000000000000002 -5.4,-4.5 c0,-3.2 6.6,-2.8 6.6,-2.8 l0.1,0 c2.5,0.1 6,1.1 10.1,3 c3.1,1.4 4.3,2.2 6.1,3.3 c-0.1,0.5 -0.2,1.1 -0.1,1.7000000000000002 c0.4,2.5 2.6,4.2 5.1,3.8 C52.05833435058594,23.600018310546886 53.758334350585926,21.300018310546875 53.35833435058595,18.800018310546875 " id="svg_3"/>
</g></g></svg>